<svg xmlns="http://www.w3.org/2000/svg" viewBox="0 0 1516 654">
  <path d="M173.1 0.5C171.6 0.7 167.1 1.4 163.1 2.0C152.4 3.5 137.1 7.5 126.0 11.6C56.5 37.5 8.5 99.9 1.0 173.8C-0.4 187.8 -0.4 464.3 1.0 479.4C5.3 524.8 24.5 565.5 57.0 598.0C86.5 627.6 124.5 646.6 165.9 652.3C181.1 654.5 230.2 654.5 244.9 652.4C292.6 645.6 334.9 622.1 365.9 585.4C390.6 556.0 406.1 519.1 410.1 480.0C410.7 473.7 411.1 436.6 411.1 384.3L411.1 298.9L308.4 299.1L205.6 299.4L205.6 355.4L205.6 411.4L256.4 411.7L307.1 411.9L307.1 442.3C307.1 474.1 306.6 479.6 302.2 491.9C294.4 514.4 275.2 534.7 253.2 543.8C238.6 549.9 234.9 550.4 206.1 550.4C183.2 550.4 178.6 550.1 172.1 548.5C150.4 542.9 131.9 530.6 120.4 513.7C114.0 504.4 111.0 498.5 107.5 487.9L104.5 479.4L104.5 326.9L104.5 174.4L107.5 165.9C115.9 140.9 131.6 122.7 154.1 112.0C170.2 104.2 174.9 103.5 205.6 103.5C230.4 103.5 233.2 103.7 240.6 105.7C272.4 114.5 295.4 137.6 304.8 169.7C306.1 174.1 306.6 181.6 306.9 202.9L307.6 230.4L359.1 230.4L410.6 230.4L410.9 209.4C411.1 197.8 410.7 182.8 410.1 175.9C405.9 129.6 386.9 88.7 354.6 56.4C326.2 28.0 292.9 10.6 251.1 2.2C245.4 1.1 234.8 0.6 209.6 0.4C190.9 0.2 174.4 0.3 173.1 0.5Z" fill="#ffffff"/>
  <path d="M619.0 1.0C584.2 5.5 548.4 20.9 521.5 42.9C512.1 50.6 495.8 67.7 488.9 76.9C466.2 107.6 453.7 141.8 451.1 180.3C449.8 199.0 449.8 455.0 451.1 473.7C457.4 566.2 525.0 639.1 616.9 652.4C626.3 653.8 634.0 654.0 661.4 653.6C692.4 653.2 695.3 653.0 706.8 650.5C760.9 638.9 805.8 607.1 834.0 560.4C848.6 536.2 858.5 504.8 861.0 475.0C862.1 461.4 862.3 407.6 861.3 344.1L860.8 298.9L758.3 298.9L656.0 298.9L656.0 355.4L656.0 411.9L707.1 411.9L758.2 411.9L757.8 443.6C757.3 478.4 756.8 482.1 750.2 497.7C740.3 521.4 717.6 540.8 691.4 548.1C684.1 550.1 681.3 550.3 656.0 550.3C630.6 550.3 627.9 550.1 620.5 548.1C585.5 538.4 560.0 509.9 555.0 475.1C554.2 469.7 554.0 424.0 554.2 321.9L554.5 176.4L557.3 167.6C567.9 133.8 594.3 110.2 628.2 104.3C642.0 101.9 680.3 102.8 691.0 105.7C717.0 112.9 737.1 129.5 748.6 153.4C756.3 169.1 757.2 174.6 757.8 204.6L758.2 230.9L809.6 230.9L861.0 230.9L861.0 205.0C861.0 161.6 856.3 138.0 841.5 107.4C814.1 50.7 758.4 10.4 694.8 1.4C683.4 -0.2 630.6 -0.5 619.0 1.0Z" fill="#ffffff"/>
  <path d="M900.0 179.4C900.0 256.1 900.3 318.9 900.8 318.9C901.1 318.9 907.5 312.9 914.9 305.6C923.5 297.1 928.1 293.2 927.8 294.7C927.4 295.9 927.5 296.7 928.0 296.4C929.0 295.8 931.3 298.6 931.8 300.7C931.8 301.6 931.4 302.7 930.8 303.2C929.9 303.8 930.1 303.9 931.3 303.5C932.4 303.2 933.0 303.5 933.0 304.4C933.0 306.1 934.2 306.3 935.5 305.0C936.1 304.4 936.5 304.9 936.5 306.4C936.5 308.0 936.2 308.5 935.3 307.8C934.1 306.7 932.3 308.5 933.4 309.6C933.8 310.0 934.0 309.7 934.0 309.0C934.0 308.3 935.4 309.1 937.1 310.8C938.8 312.5 939.9 314.3 939.5 314.9C939.2 315.4 939.5 315.9 940.2 315.9C941.3 315.9 941.3 316.1 940.2 316.8C939.2 317.4 939.6 318.2 941.9 320.1C944.1 322.0 944.6 322.9 943.8 323.8C942.9 324.6 942.9 324.9 943.9 324.9C944.8 324.9 945.0 325.5 944.6 326.5C944.2 327.5 944.4 327.8 945.2 327.3C946.0 326.8 946.1 327.3 945.8 328.8C945.4 330.3 945.6 330.9 946.3 330.6C947.0 330.3 947.4 329.5 947.2 328.8C947.1 328.0 947.6 328.2 948.5 329.3C949.6 330.8 949.8 331.6 948.8 332.6C948.2 333.4 948.1 333.9 948.6 333.8C951.3 333.3 952.2 333.9 951.0 335.4C949.9 336.7 950.0 336.8 951.4 336.3C952.3 336.0 953.0 336.2 953.0 336.8C953.0 337.4 952.0 337.9 950.8 338.0C948.6 338.0 948.6 338.1 950.5 338.8C951.6 339.3 953.2 339.4 954.0 339.1C955.3 338.6 955.3 338.8 954.1 340.2C952.9 341.7 953.0 341.9 954.6 342.0C956.4 342.0 956.4 342.1 954.5 342.9C953.4 343.4 953.1 343.8 953.8 343.8C954.4 343.9 955.0 344.8 955.0 345.9C955.0 347.2 955.8 347.9 956.9 347.9C959.1 347.9 960.3 350.2 958.9 351.8C958.4 352.4 958.3 352.6 958.8 352.3C959.1 352.0 960.0 353.5 960.8 355.6C961.4 357.7 961.8 358.4 961.6 357.2C961.3 355.3 961.5 355.2 963.1 356.2C964.8 357.2 964.8 357.5 963.5 358.9C962.3 360.3 962.3 360.6 964.1 361.7C965.2 362.4 965.8 363.5 965.4 364.1C965.0 364.7 965.1 364.9 965.8 364.6C966.3 364.2 967.1 364.6 967.4 365.5C967.8 366.3 968.5 366.7 969.1 366.3C969.9 365.9 970.0 366.0 969.6 366.7C969.2 367.4 969.5 367.9 970.4 367.9C971.2 367.9 972.2 368.3 972.5 368.9C972.8 369.5 972.4 369.6 971.5 369.3C970.4 368.8 970.1 369.1 970.6 370.4C971.0 371.4 970.8 372.5 969.9 373.1C968.9 373.8 969.1 373.9 970.8 373.6C972.0 373.3 973.0 373.4 973.0 373.7C973.0 374.1 956.5 390.9 936.3 411.0L899.8 447.8L900.3 464.1C901.1 482.7 902.9 495.9 906.8 510.3C924.3 577.5 977.5 630.6 1044.5 647.9C1065.3 653.3 1075.8 654.1 1112.0 653.6C1142.5 653.2 1145.3 653.0 1157.0 650.5C1175.1 646.6 1189.5 641.5 1206.0 633.2C1264.5 603.8 1304.0 546.8 1311.0 481.7C1311.6 475.7 1312.0 440.6 1312.0 389.7L1312.0 307.4L1384.0 235.4L1456.0 163.4L1486.0 193.4L1516.0 223.4L1515.8 131.9L1515.5 40.4L1424.0 40.1L1332.5 39.9L1362.5 69.9L1392.5 99.9L1352.2 140.2L1312.0 180.4L1312.0 110.1L1312.0 39.9L1260.5 39.9L1209.0 39.9L1209.0 150.1C1209.0 210.8 1208.6 265.8 1208.5 272.4L1208.0 284.4L1192.3 300.1C1183.6 308.8 1176.1 315.9 1175.5 315.9C1175.0 315.9 1144.1 285.5 1107.0 248.4L1039.5 180.9L1021.8 198.6L1004.0 216.4L1004.0 128.1L1004.0 39.9L952.0 39.9L900.0 39.9L900.0 179.4Z" fill="#ffffff"/>
  <path d="M1191.8 427.7L1208.0 411.4L1208.0 441.7C1208.0 465.4 1207.8 473.7 1206.5 479.7C1199.5 513.8 1173.3 540.4 1138.8 548.4C1129.0 550.7 1098.0 551.6 1084.1 550.0C1045.6 545.5 1017.5 521.1 1006.3 482.4C1004.8 477.0 1004.5 469.4 1004.2 410.0L1004.0 343.5L1021.8 325.7L1039.5 307.9L1107.5 375.9L1175.5 443.9L1191.8 427.7Z" fill="#ffffff"/>
  <path d="M944.0 319.3C945.4 321.1 945.4 321.1 943.3 319.9C942.1 319.1 941.4 318.1 941.8 317.6C942.0 317.2 942.3 316.9 942.4 317.1C942.5 317.3 943.2 318.3 944.0 319.3Z" fill="#ffffff"/>
  <path d="M958.8 346.5C958.4 346.8 957.5 346.9 956.8 346.6C956.0 346.3 956.3 346.0 957.4 346.0C958.5 345.9 959.1 346.2 958.8 346.5Z" fill="#ffffff"/>
  <path d="M962.5 352.9C962.8 353.4 962.6 353.9 962.1 353.9C961.5 353.9 961.0 353.4 961.0 352.9C961.0 352.3 961.2 351.9 961.4 351.9C961.8 351.9 962.2 352.3 962.5 352.9Z" fill="#ffffff"/>
</svg>