<svg xmlns="http://www.w3.org/2000/svg" viewBox="0 0 587 404">
  <path d="M433.5 30.0L463.5 60.0L355.5 168.0C296.1 227.4 247.1 276.0 246.5 276.0C246.0 276.0 215.1 245.6 178.0 208.5L110.5 141.0L54.5 197.1C23.7 228.0 -0.8 253.0 0.0 252.8C1.0 252.4 1.6 253.0 1.7 254.9C2.0 257.7 2.3 259.0 3.5 263.2C4.3 266.2 6.0 267.0 6.0 264.4C6.0 263.6 6.4 263.1 6.8 263.4C7.3 263.7 7.6 265.5 7.5 267.5C7.5 270.1 8.0 271.4 9.3 272.2C10.4 272.8 10.9 273.8 10.6 274.7C10.1 275.8 10.4 276.1 11.6 275.6C13.1 275.0 13.1 275.2 11.9 276.6C10.6 278.2 10.7 278.2 12.7 277.1C14.6 276.1 14.9 276.2 14.4 277.5C14.0 278.3 13.4 279.0 12.8 279.0C12.3 279.0 12.5 279.7 13.4 280.5C15.3 282.4 16.6 282.5 15.1 280.6C14.2 279.5 14.2 279.0 15.2 278.4C15.9 278.0 16.2 278.1 15.7 278.5C15.3 279.0 15.8 280.2 16.7 281.2C17.9 282.5 18.0 283.0 17.1 282.8C14.5 282.2 15.0 284.7 18.0 287.9C19.7 289.6 20.8 291.5 20.5 291.9C20.3 292.4 20.7 293.1 21.6 293.4C22.8 293.9 23.1 293.6 22.6 292.5C22.3 291.6 22.4 291.2 23.0 291.5C24.4 292.4 24.2 295.0 22.8 295.0C22.2 295.0 22.5 295.7 23.6 296.5C24.7 297.3 25.0 298.0 24.3 298.0C23.6 298.0 23.0 298.4 23.0 299.0C23.0 299.5 23.7 299.7 24.5 299.3C25.5 299.0 26.0 299.3 25.8 300.1C25.6 301.0 26.2 301.4 27.5 301.2C29.3 301.0 29.3 301.0 27.8 302.0C25.4 303.5 25.6 304.9 28.3 306.0C29.6 306.5 29.9 306.9 29.0 307.0C27.8 307.0 27.8 307.2 28.8 307.9C29.5 308.3 30.3 309.6 30.5 310.6C30.7 311.6 30.9 312.7 30.9 312.9C31.0 313.1 32.0 312.5 33.2 311.4C34.6 310.2 35.0 310.1 34.2 311.1C33.6 312.0 33.3 313.0 33.7 313.3C34.0 313.7 33.7 314.0 32.9 314.0C31.9 314.1 32.1 314.6 33.5 315.8C34.6 316.7 35.5 318.1 35.6 318.7C35.8 321.7 36.1 322.1 37.2 321.4C37.9 321.0 38.0 321.1 37.6 321.8C36.6 323.5 38.8 327.0 41.6 328.0C42.9 328.5 44.0 329.5 43.9 330.2C43.9 331.2 43.7 331.2 43.3 330.2C42.5 328.2 41.1 328.8 41.7 331.0C42.0 332.1 42.7 333.0 43.2 333.0C43.7 333.0 43.8 333.6 43.4 334.2C43.0 334.9 58.0 320.3 76.6 301.8L110.5 268.0L178.5 336.0L246.5 404.0L386.7 263.8L527.0 123.5L557.0 153.5L587.0 183.5L586.8 92.0L586.5 0.5L495.0 0.2L403.5 0.0L433.5 30.0Z" fill="#000000"/>
  <path d="M41.0 325.7C41.0 327.6 39.7 326.6 39.4 324.5C39.3 323.7 39.6 323.2 40.1 323.6C40.6 323.9 41.0 324.8 41.0 325.7Z" fill="#000000"/>
</svg>