<?xml version="1.0" encoding="UTF-8"?>
<svg id="_레이어_1" data-name="레이어_1" xmlns="http://www.w3.org/2000/svg" version="1.1" viewBox="0 0 120 32">
  <!-- Generator: Adobe Illustrator 30.1.0, SVG Export Plug-In . SVG Version: 2.1.1 Build 136)  -->
  <defs>
    <style>
      .st0 {
        fill: #9f9f9f;
      }
    </style>
  </defs>
  <path class="st0" d="M0,6.71h8.8c1.68,0,2.93.42,3.86,1.12,1.02.84,1.58,2.05,1.58,3.54,0,1.72-.7,2.79-2.09,3.44v.09c1.86.61,2.93,2.28,2.93,4.28s-.74,3.4-1.96,4.33c-1.02.74-2.33,1.07-4.1,1.07H0V6.71ZM7.91,13.7c.93,0,1.63-.51,1.63-1.58s-.7-1.54-1.68-1.54h-3.03v3.07h3.07v.05ZM8.33,20.63c1.07,0,1.86-.65,1.86-1.82,0-1.26-.84-1.82-1.86-1.82h-3.44v3.68h3.44v-.05Z"/>
  <path class="st0" d="M15.87,6.71h4.61v17.92h-4.61V6.71Z"/>
  <path class="st0" d="M21.41,18.26c0-4.05,2.61-6.75,6.66-6.75s6.61,2.75,6.61,6.75-2.56,6.75-6.61,6.75-6.66-2.7-6.66-6.75ZM30.07,18.26c0-2.23-.7-3.63-2.09-3.63s-2.05,1.4-2.05,3.63.65,3.68,2.05,3.68c1.4-.05,2.09-1.44,2.09-3.68Z"/>
  <path class="st0" d="M35.19,18.26c0-4.05,2.61-6.75,6.66-6.75s6.56,2.7,6.56,6.75-2.56,6.75-6.61,6.75-6.61-2.7-6.61-6.75ZM43.85,18.26c0-2.23-.7-3.63-2.09-3.63s-2.05,1.4-2.05,3.63.65,3.68,2.05,3.68c1.4-.05,2.09-1.44,2.09-3.68Z"/>
  <path class="st0" d="M49.34,11.83h4.28v1.91h.09c.84-1.49,2-2.28,3.86-2.28,1.63,0,2.84.79,3.44,2.19h.09c1.02-1.68,2.37-2.19,3.96-2.19,2.98,0,4.24,2.19,4.24,5.12v8.01h-4.47v-7.21c0-1.3-.42-2.14-1.54-2.14s-1.68,1.02-1.68,2.42v6.94h-4.47v-7.21c0-1.3-.42-2.14-1.54-2.14s-1.68,1.02-1.68,2.42v6.94h-4.61v-12.75Z"/>
  <path class="st0" d="M74.94,22.91h-.05v1.68h-4.28V6.71h4.47v6.42h.09c.84-1.12,2-1.72,3.63-1.72,3.21,0,5.07,2.89,5.07,6.75,0,4.33-2,6.84-5.35,6.84-1.4,0-2.84-.65-3.58-2.09ZM79.27,18.12c0-2.05-.74-3.4-2.09-3.4s-2.23,1.35-2.23,3.4.88,3.4,2.23,3.4,2.09-1.3,2.09-3.4Z"/>
  <path class="st0" d="M84.39,18.21c0-4,2.65-6.75,6.47-6.75,1.91,0,3.35.61,4.47,1.68,1.49,1.44,2.14,3.68,2.09,6.28h-8.56c.19,1.58.93,2.42,2.28,2.42.79,0,1.49-.37,1.77-1.21h4.33c-.74,2.93-3.03,4.38-6.24,4.38-3.96-.05-6.61-2.75-6.61-6.8ZM88.86,16.86h4.1c-.09-1.54-.93-2.33-2-2.33-1.26-.05-1.95.84-2.09,2.33Z"/>
  <path class="st0" d="M102.5,14.02h.09c.93-1.77,2.14-2.47,3.68-2.47.37,0,.61.05.74.14v3.91h-.09c-2.65-.47-4.19.79-4.19,3.68v5.35h-4.52v-12.8h4.28v2.19Z"/>
  <path class="st0" d="M107.48,24.63h4.33c.19.56.74,1.07,1.82,1.07,1.44,0,1.96-.88,1.96-2.23v-.93h-.09c-.7.84-1.68,1.44-3.07,1.44-2.75,0-5.17-2.05-5.17-6.05,0-3.68,1.96-6.52,4.93-6.52,1.72,0,2.75.7,3.44,1.77h.09v-1.4h4.28v11.08c0,2.05-.7,3.63-1.77,4.56-1.12.98-2.7,1.4-4.52,1.4-3.44.05-5.82-1.35-6.24-4.19ZM115.76,17.75c0-1.58-.74-2.89-2.05-2.89s-2.05,1.12-2.05,2.89.79,2.93,2.05,2.93c1.26,0,2.05-1.26,2.05-2.93Z"/>
</svg>