<?xml version="1.0" encoding="UTF-8"?>
<svg id="_레이어_1" xmlns="http://www.w3.org/2000/svg" version="1.1" viewBox="0 0 120 32">
  <!-- Generator: Adobe Illustrator 30.1.0, SVG Export Plug-In . SVG Version: 2.1.1 Build 136)  -->
  <defs>
    <style>
      .st0 {
        fill: #9f9f9f;
        fill-rule: evenodd;
      }
    </style>
  </defs>
  <path class="st0" d="M17.65,18c-.36.21-.79.29-1.07.07-.43-.21-.64-.79-.64-1.5v-2.29c0-1.07-.43-1.86-1.14-2.07-1.22-.36-2.14,1.14-2.5,1.72l-2.14,3.5v-4.29c0-1-.36-1.57-.93-1.72-.43-.14-1-.07-1.57.79l-4.79,7.72c-.64-1.22-1-2.57-1-4,0-4.65,3.72-8.43,8.29-8.43s8.29,3.86,8.29,8.51h0c.07.93-.21,1.64-.79,2h0ZM20.3,16h0c0-5.72-4.57-10.29-10.15-10.29S0,10.35,0,16s4.57,10.29,10.15,10.29c2.57,0,5-1,6.93-2.79.36-.36.43-.93.07-1.36-.36-.36-.93-.43-1.29-.07h0c-1.5,1.43-3.57,2.29-5.65,2.29-2.43,0-4.65-1.07-6.22-2.79l4.36-7v3.22c0,1.57.57,2.07,1.07,2.22s1.29.07,2.07-1.29l2.36-3.86c.07-.14.14-.21.21-.36v1.93c0,1.43.57,2.57,1.57,3.14.93.5,2.07.5,3-.14,1.14-.5,1.72-1.86,1.64-3.43ZM34.45,12.5c.21.14.43.5.43.79,0,.5-.43.86-.86.86-.14,0-.21,0-.36-.07-.57-.43-1.22-.64-1.93-.64-1.72,0-2.86,1.36-2.86,3.07s1.14,3.07,2.86,3.07c.86,0,1.57-.36,2.14-.86.14-.07.36-.14.5-.14.43,0,.79.36.79.86,0,.29-.21.57-.43.71-.79.71-1.93,1.14-3.07,1.14-2.57,0-4.72-2.14-4.72-4.79s2.14-4.79,4.72-4.79c1.14-.07,2.07.21,2.79.79ZM39.24,14.5c1.79,0,3.29,1.5,3.29,3.36s-1.5,3.43-3.29,3.43-3.43-1.57-3.43-3.43c0-1.86,1.57-3.36,3.43-3.36h0ZM39.24,19.57c.79,0,1.43-.71,1.43-1.72s-.64-1.64-1.43-1.64c-.86,0-1.57.64-1.57,1.64s.71,1.72,1.57,1.72ZM43.6,20.22v-4.72c0-.5.43-.93.93-.93s.93.43.93.93v4.72c0,.5-.43.93-.93.93-.5,0-.93-.43-.93-.93ZM43.45,12.78c0-.64.5-1.07,1.07-1.07s1.07.5,1.07,1.07-.5,1.07-1.07,1.07-1.07-.5-1.07-1.07ZM48.96,17.64v2.57c0,.5-.43.93-.93.93s-.93-.43-.93-.93v-4.93c0-.43.36-.71.71-.71s.71.36.71.71c.71-.71,1.43-.79,2-.79,1.86,0,2.64,1.36,2.64,2.93v2.79c0,.5-.43.93-.93.93s-.93-.43-.93-.93v-2.57c0-.79-.07-1.5-1.29-1.5-.71,0-1.07.71-1.07,1.5h0ZM59.25,18.64c-.21,0-.36-.07-.5-.21l-2.14-2.36v4.15c0,.5-.43.93-.93.93s-.93-.43-.93-.93v-8.22c.07-.14.21-.21.36-.21s.29.14.36.21l3.43,3.86c.07.14.21.21.29.21s.21-.07.29-.21l3.43-3.86c.07-.07.21-.21.36-.21s.29.07.36.21v8.22c0,.5-.43.93-.93.93s-.93-.43-.93-.93v-4.15l-2.14,2.36c-.07.07-.21.21-.36.21h0ZM68.04,19.57c.86,0,1.5-.71,1.5-1.72s-.71-1.64-1.5-1.64-1.43.64-1.43,1.64c0,.93.64,1.72,1.43,1.72ZM70.04,20.43v-.21c-.36.71-1.5,1-2.22,1-1.72,0-3-1.57-3-3.43s1.29-3.36,3.07-3.36c.29,0,1.36.07,2.14,1v-.21c0-.43.29-.71.71-.71.36,0,.71.36.71.71v5.15c0,.43-.36.71-.71.71-.43.07-.71-.21-.71-.64h0ZM76.55,16.14h-.21c-1.14.07-1.36.71-1.36,1.5v2.57c0,.5-.43.93-.93.93s-.93-.43-.93-.93v-4.93c0-.43.36-.71.71-.71s.71.36.71.71c.71-.64,1.22-.79,1.79-.79h.21c.43,0,.86.36.86.86-.07.43-.43.79-.86.79h0ZM83.62,19.79c.07.14.14.29.14.43,0,.5-.43.93-.93.93-.36,0-.57-.21-.79-.5l-2.14-2.43v2c0,.5-.43.93-.93.93s-.93-.43-.93-.93v-7.5c0-.5.43-.93.93-.93s.93.43.93.93v4.72l2.14-2.36c.21-.21.5-.5.79-.5.43,0,.86.43.86.93,0,.14,0,.29-.14.43l-1.64,1.86,1.72,2h0ZM87.19,16.21c-.5,0-1.29.29-1.29,1.07h2.64c0-.86-.86-1.07-1.36-1.07h0ZM89.62,18.43h-3.72c0,1.07,1.07,1.29,1.5,1.29.36,0,.86-.07,1.22-.21.14-.07.29-.14.5-.14.43,0,.71.36.71.79,0,.29-.21.5-.43.64-.57.43-1.29.5-2,.5-1.86,0-3.43-1-3.43-3.36,0-1.86.93-3.43,3.14-3.43,1.79,0,3.14,1.14,3.14,3.22.07.36-.21.71-.64.71h0ZM94.77,21.22h-.5c-1.43,0-2.22-.64-2.22-2.79v-2.29h-.5c-.43,0-.86-.43-.86-.86,0-.5.36-.86.86-.86h.5v-1.72c0-.5.43-.93.93-.93s.93.43.93.93v1.72h.79c.43,0,.86.36.86.86,0,.43-.36.86-.86.86h-.79v1.93c0,1.29.07,1.5.64,1.5h.29c.43,0,.79.36.79.86-.07.43-.43.79-.86.79h0ZM103.63,12.5c.21.14.43.5.43.79,0,.5-.43.86-.86.86-.14,0-.21,0-.36-.07-.57-.43-1.22-.64-1.93-.64-1.72,0-2.86,1.36-2.86,3.07s1.14,3.07,2.86,3.07c.86,0,1.57-.36,2.14-.86.14-.07.36-.14.5-.14.43,0,.79.36.79.86,0,.29-.21.57-.43.71-.79.71-1.93,1.14-3.07,1.14-2.57,0-4.72-2.14-4.72-4.79s2.14-4.79,4.72-4.79c1.14-.07,2.07.21,2.79.79h0ZM108.35,19.57c.86,0,1.5-.71,1.5-1.72s-.71-1.64-1.5-1.64-1.43.64-1.43,1.64c-.07.93.57,1.72,1.43,1.72h0ZM110.28,20.43v-.21c-.36.71-1.5,1-2.22,1-1.72,0-3-1.57-3-3.43s1.29-3.36,3.07-3.36c.29,0,1.36.07,2.14,1v-.21c0-.43.29-.71.71-.71.36,0,.71.36.71.71v5.15c0,.43-.36.71-.71.71-.43.07-.71-.21-.71-.64ZM116.78,19.57c.79,0,1.43-.79,1.43-1.72,0-1-.64-1.64-1.43-1.64s-1.5.64-1.5,1.64c-.07,1,.64,1.72,1.5,1.72ZM115.21,20.72v2.36c0,.5-.43.93-.93.93s-.93-.43-.93-.93v-7.79c0-.43.36-.71.71-.71s.71.36.71.79c.71-.71,1.5-.86,2.14-.86,1.79,0,3.07,1.5,3.07,3.36s-1.29,3.43-3,3.43c-.5-.07-1.29-.21-1.79-.57h0Z"/>
</svg>