<?xml version="1.0" encoding="UTF-8"?>
<svg id="_레이어_1" data-name="레이어_1" xmlns="http://www.w3.org/2000/svg" version="1.1" viewBox="0 0 120 32">
  <!-- Generator: Adobe Illustrator 30.1.0, SVG Export Plug-In . SVG Version: 2.1.1 Build 136)  -->
  <defs>
    <style>
      .st0 {
        fill: #9f9f9f;
      }
    </style>
  </defs>
  <path class="st0" d="M20.72,6.67h-2.06c-.1-.96-.38-1.67-.84-2.13s-1.11-.7-1.96-.7c-.98,0-1.69.35-2.13,1.06s-.66,1.85-.66,3.43v2.52h4.9v2.22h-4.9v15.08h3.77v2.22H3.8v-2.22h2.77v-15.08h-2.9v-2.22h2.9v-2.44c0-2.17.69-3.81,2.08-4.93s3.42-1.68,6.1-1.68c1.04,0,2.06.06,3.05.17s1.97.29,2.92.52v4.19Z"/>
  <path class="st0" d="M22.15,5.31c0-.99.34-1.83,1.03-2.51.69-.68,1.52-1.02,2.52-1.02s1.79.34,2.47,1.02,1.02,1.52,1.02,2.51-.34,1.79-1.02,2.47-1.5,1.02-2.47,1.02-1.83-.34-2.52-1.01c-.69-.67-1.03-1.5-1.03-2.48ZM29.26,28.15h2.79v2.22h-12.07v-2.22h2.77v-15.08h-2.77v-2.22h9.28v17.3Z"/>
  <path class="st0" d="M34.28,30.37v-2.22h2.77v-15.08h-2.77v-2.22h9.28v2.76c.78-1.16,1.68-2,2.68-2.52s2.27-.77,3.8-.77c2.19,0,3.85.65,4.97,1.94,1.12,1.29,1.68,3.19,1.68,5.7v10.2h2.79v2.22h-11.66v-2.22h2.37v-10.38c0-1.65-.21-2.8-.63-3.44s-1.15-.96-2.2-.96c-1.31,0-2.27.48-2.88,1.44s-.92,2.49-.92,4.58v8.76h2.39v2.22h-11.66Z"/>
  <path class="st0" d="M68.74,30.37l-6.93-17.3h-2.15v-2.22h11.21v2.22h-2.37l4.94,12.34,4.92-12.34h-2.55v-2.22h7.33v2.22h-2.26l-6.93,17.3h-5.22Z"/>
  <path class="st0" d="M85.66,5.31c0-.99.34-1.83,1.03-2.51.69-.68,1.52-1.02,2.52-1.02s1.79.34,2.47,1.02,1.02,1.52,1.02,2.51-.34,1.79-1.02,2.47-1.5,1.02-2.47,1.02-1.83-.34-2.52-1.01c-.69-.67-1.03-1.5-1.03-2.48ZM92.77,28.15h2.79v2.22h-12.07v-2.22h2.77v-15.08h-2.77v-2.22h9.28v17.3Z"/>
  <path class="st0" d="M97.81,30.37v-2.22l11.21-15.15h-8.43v3.34h-2.19v-5.49h18.19v2.19l-11.22,15.15h9.04v-3.53h2.19v5.71h-18.77Z"/>
  <circle class="st0" cx="89.16" cy="5.28" r="3.91"/>
</svg>