<?xml version="1.0" encoding="UTF-8"?>
<svg id="_레이어_1" data-name="레이어_1" xmlns="http://www.w3.org/2000/svg" version="1.1" viewBox="0 0 120 32">
  <!-- Generator: Adobe Illustrator 30.1.0, SVG Export Plug-In . SVG Version: 2.1.1 Build 136)  -->
  <defs>
    <style>
      .st0 {
        fill: #9f9f9f;
      }
    </style>
  </defs>
  <path class="st0" d="M56.85,7.77c0-.76-.61-1.15-1.28-1.15h-13.79v1.36h11.72v3.11c0,1.16-.1,2.32-.47,3.28h-13.78v1.36h8.02v2.61h-5.8v1.36h11.93v7.06h1.94c.94,0,1.41-.34,1.41-1.46v-5.78c0-.74-.54-1.17-1.17-1.17h-4.96v-2.61h8.53v-1.36h-3.26c.56-.74.95-2.23.95-3.37v-3.23Z"/>
  <path class="st0" d="M24.3,19.66h-3.81c.28.3.44,1.13.44,1.73v3.77c0,1.26.44,1.61,1.75,1.61h11.83v-1.36h-10.21v-5.74Z"/>
  <path class="st0" d="M28.45,7.81h-4.48v-1.78h-3.7c.26.24.35.92.35,1.41v.37h-4.48v1.36h2.93c-1.31.88-2.17,2.31-2.2,4.07.04,2.98,2.48,5.02,5.39,5.02s5.37-2.04,5.41-5.02c-.02-1.76-.9-3.19-2.21-4.07h2.98v-1.36ZM22.26,16.88c-1.47,0-2.46-1.49-2.48-3.63.02-2.14,1-3.63,2.48-3.63s2.49,1.49,2.5,3.63c-.01,2.14-1.01,3.63-2.5,3.63Z"/>
  <path class="st0" d="M33.75,6.48h-3.81c.37.3.47,1.13.47,1.75v12.63h1.93c.95,0,1.41-.42,1.41-1.46v-6.72h3.3v-1.36h-3.3v-4.84Z"/>
  <path class="st0" d="M100.17,6.5c.44.32.66,1.08.66,1.73v18.53h1.55c1.06,0,1.48-.68,1.48-1.74V6.5h-3.69Z"/>
  <path class="st0" d="M96.3,12.93h-3.27v1.36h3.27v10.62h1.45c1.05,0,1.55-.61,1.55-1.84V6.5h-3.6c.39.28.6,1.1.6,1.73v4.69Z"/>
  <path class="st0" d="M73.15,8.6c.06-.73-.34-1.29-1.11-1.29h-8.91v1.37h6.64c0,4.83-2.9,7.88-7.77,8.7l.6.91c6.29-.75,10.09-3.64,10.55-9.69"/>
  <path class="st0" d="M80.03,6.5h-3.84c.4.3.59,1.13.59,1.75v1.5h-3.49v1.37h3.49v1.97h-3.61v1.36h3.61v3.12c-.85-.37-1.8-.58-2.81-.58-3.25,0-5.98,2.14-6.03,5.26.05,3.11,2.78,5.25,6.03,5.25s6.01-2.14,6.06-5.25c0-.06,0-.12,0-.17h0s0-15.58,0-15.58ZM73.97,26.09c-1.75,0-2.93-1.56-2.94-3.81.02-2.25,1.19-3.82,2.94-3.82s2.96,1.57,2.97,3.82c-.02,2.25-1.21,3.81-2.97,3.81Z"/>
  <path class="st0" d="M93.99,8.5c0-.84-.53-1.19-1.21-1.19h-7.85v1.37h5.79c0,4.19-2.93,6.83-7.23,8.38,4.67.74,8.2,3.08,10.62,6.49v-4.15c-1.91-1.53-4.13-2.37-6.26-2.75,3.28-1.24,6.14-5.3,6.14-8.14"/>
</svg>