<?xml version="1.0" encoding="UTF-8"?>
<svg id="_레이어_1" xmlns="http://www.w3.org/2000/svg" version="1.1" viewBox="0 0 120 32">
  <!-- Generator: Adobe Illustrator 30.1.0, SVG Export Plug-In . SVG Version: 2.1.1 Build 136)  -->
  <defs>
    <style>
      .st0 {
        fill: #9f9f9f;
      }
    </style>
  </defs>
  <path class="st0" d="M78.47,26.98c-1.87,0-3.24-.36-4.15-1.08-.77-.58-1.2-1.49-1.2-2.47h3.72c.17.72.48,1.13,1.68,1.13,1.32,0,1.87-.72,1.87-2.35v-1.44h-.07c-.46,1.18-1.66,1.92-2.95,1.8-3.07,0-4.63-1.75-4.63-5.16-.07-1.46.43-2.86,1.39-3.96.86-.89,2.06-1.39,3.31-1.37,1.2-.12,2.37.5,2.93,1.56h.07v-1.32h3.67v9.55c0,1.75-.43,3-1.32,3.79-.96.89-2.35,1.32-4.32,1.32ZM78.59,14.67c-1.2,0-1.92,1.03-1.92,2.76s.65,2.76,1.85,2.76c1.03,0,1.85-.84,1.85-1.87h0v-1.37c0-1.44-.65-2.28-1.78-2.28h0ZM43.53,23.36c-1.32.12-2.62-.22-3.72-.96-.72-.62-1.15-1.51-1.2-2.47h3.43c.07.72.55,1.08,1.44,1.08.84,0,1.37-.31,1.37-.89,0-.48-.31-.72-1.08-.84l-1.75-.24c-2.09-.24-3.24-1.44-3.24-3.31-.02-.96.38-1.87,1.08-2.52,2.07-1.44,4.82-1.51,6.96-.17.72.6,1.13,1.47,1.13,2.4h-3.38c-.02-.62-.53-1.1-1.13-1.08h-.07c-.96,0-1.15.43-1.15.84s.17.72,1.03.84l1.87.24c.82.03,1.61.36,2.23.89.6.58.91,1.41.84,2.23.15,2.47-1.71,3.98-4.66,3.96h0ZM32.73,23.31c-3.48,0-5.47-2.04-5.47-5.71-.05-1.47.46-2.91,1.44-4.03,1.06-1.05,2.54-1.59,4.03-1.51,1.87,0,3.31.53,4.2,1.56.91,1.17,1.37,2.61,1.32,4.08v.84h-7.15c.12,1.56.6,2.28,1.75,2.28.69.12,1.35-.33,1.51-1.03h3.79c-.26,2.25-2.13,3.51-5.42,3.51h0ZM32.73,14.36c-1.03,0-1.51.72-1.63,2.16h3.24v-.12c-.12-1.37-.65-2.04-1.61-2.04h0ZM101.59,23.26c-1.17.07-2.3-.38-3.12-1.2-.79-.91-1.2-2.09-1.15-3.31-.07-1.18.34-2.35,1.15-3.24.84-.81,1.95-1.23,3.12-1.2,2.64,0,4.27,1.68,4.27,4.44s-1.7,4.51-4.27,4.51ZM101.59,16.06c-1.39,0-1.68,1.51-1.68,2.76,0,1.87.6,2.76,1.68,2.76s1.68-.96,1.68-2.76-.6-2.76-1.68-2.76ZM93,23.26c-1.17.07-2.3-.38-3.12-1.2-.75-.91-1.15-2.06-1.08-3.24,0-2.76,1.63-4.44,4.27-4.44,2.4,0,3.84,1.2,3.91,3.24h-2.45c-.05-.72-.36-1.56-1.44-1.56-1.51,0-1.68,1.73-1.68,2.76,0,1.87.55,2.76,1.68,2.76.82,0,1.49-.65,1.51-1.47v-.03h0v-.17h2.4c0,.98-.41,1.89-1.15,2.54-.86.55-1.83.84-2.85.82h0ZM52.65,23.19c-.93.09-1.85-.19-2.59-.77-.72-.75-1.1-1.78-1.03-2.83v-10.2h3.74v2.95h2.23v2.64h-2.16v3.91c0,1.13.36,1.56,1.39,1.56.24.02.48-.02.72-.07v2.69c-.79.05-1.51.12-2.3.12ZM114.67,23.02h-2.52v-4.99c.05-.48-.03-.94-.24-1.37-.24-.36-.65-.55-1.08-.48-1.03,0-1.63.72-1.63,1.92v4.92h-2.52v-8.47h2.4v1.39h0c.5-.99,1.53-1.61,2.64-1.56,1.44,0,2.28.6,2.64,1.75h.05c.48-1.1,1.58-1.78,2.76-1.75,1.92,0,2.83,1.03,2.83,3.12v5.52h-2.52v-4.97c.05-.48-.03-.94-.24-1.37-.24-.36-.65-.55-1.08-.48-1.03,0-1.63.72-1.63,1.92l.14,4.9h0ZM64.84,23.02h-3.84v-10.68h3.72v1.73h.07c.67-1.27,2.04-2.04,3.48-1.92,1.37,0,2.35.36,2.95,1.08.62.93.89,2.02.77,3.12v6.67h-3.84v-6.07c.05-.53-.05-1.08-.31-1.56-.27-.38-.74-.58-1.2-.53-1.13,0-1.73.72-1.73,2.16l-.07,6h0ZM9.24,23.02h-3.84v-10.68h3.72v1.73h.05c.67-1.27,2.04-2.04,3.48-1.92,1.37,0,2.35.36,2.95,1.08.62.93.89,2.02.79,3.12v6.67h-3.84v-6.07c.05-.53-.05-1.08-.31-1.56-.27-.38-.74-.58-1.2-.53-1.15,0-1.75.72-1.75,2.16l-.05,6h0ZM88.02,23.02h-2.64v-2.52h2.64v2.52h0ZM59.73,23.02h-3.84v-10.68h3.84v10.68ZM23.95,23.02h-3.96l-3.79-10.68h3.86l1.37,4.63c.36,1.32.67,2.71.67,2.76h.07c.19-.91.36-1.8.6-2.71l1.39-4.63h3.72l-3.93,10.63h0ZM3.96,23.02H0V7.9h3.96v15.12h0Z"/>
  <path class="st0" d="M55.77,11.19l3.96-.72v-3.91l-3.96.72v3.91Z"/>
</svg>